<?xml version="1.0" encoding="UTF-8"?>
<svg width="60px" height="58px" viewBox="0 0 60 58" version="1.1" xmlns="http://www.w3.org/2000/svg" xmlns:xlink="http://www.w3.org/1999/xlink">
    <!-- Generator: Sketch 47.1 (45422) - http://www.bohemiancoding.com/sketch -->
    <title>Video Games - Outline - 014 - Key</title>
    <desc>Created with Sketch.</desc>
    <defs></defs>
    <g id="Page-1" stroke="none" stroke-width="1" fill="none" fill-rule="evenodd">
        <g id="Video-Games---Outline---014---Key" transform="translate(-1.000000, 0.000000)" fill-rule="nonzero" fill="#000000">
            <path d="M47.54785,19.00049 C47.7343508,19.1805372 47.9834413,19.2811887 48.24267,19.28125 L48.26025,19.28125 C48.525303,19.2763684 48.7776151,19.1666278 48.96191,18.97607 L53.19873,14.58886 C53.5823714,14.1915981 53.5714441,13.558584 53.17432,13.1748 L50.24952,10.35009 C50.0593087,10.1647615 49.8026275,10.0636023 49.53712,10.06933 C49.272067,10.0742116 49.0197549,10.1839522 48.83546,10.37451 L44.59864,14.76172 C44.2149986,15.1589819 44.2259259,15.791996 44.62305,16.17578 L47.54785,19.00049 Z M49.5791,12.4834 L51.06543,13.91846 L48.21826,16.86719 L46.73193,15.43213 L49.5791,12.4834 Z" id="Shape"></path>
            <path d="M14.04,35.62793 C9.02931476,35.7121785 5.02357924,39.8204183 5.06593783,44.8316327 C5.10829643,49.8428472 9.18290656,53.8827857 14.1943,53.88232 C14.24899,53.88232 14.30368,53.88232 14.35836,53.88132 C17.6233152,53.8306719 20.6125379,52.0398474 22.1974849,49.1849497 C23.7824318,46.330052 23.7216654,42.8459721 22.0381274,40.0480805 C20.3545894,37.2501889 17.3047356,35.5646928 14.04,35.62793 L14.04,35.62793 Z M19.32959,49.7085 C16.9657275,52.1627069 13.197164,52.6047328 10.3295518,50.764141 C7.46193972,48.9235491 6.29438316,45.3132486 7.54120725,42.1420647 C8.78803135,38.9708808 12.1017894,37.1225125 15.4550845,37.7278138 C18.8083797,38.3331151 21.2667646,41.2234094 21.32617,44.63038 C21.3592933,46.5206805 20.641259,48.3469356 19.32959,49.7085 Z" id="Shape"></path>
            <path d="M22.62024,31.66772 L20.93182,33.41632 C15.172888,29.9945995 7.76403289,31.4295972 3.69912267,36.7540665 C-0.365787553,42.0785358 0.20256502,49.603649 5.02108777,54.2571753 C9.83961052,58.9107016 17.3799529,59.2166246 22.5596192,54.9687397 C27.7392855,50.7208548 28.9153768,43.2665164 25.29516,37.63025 L26.98382,35.88165 L27.75048,36.62207 C28.3044256,37.1589303 29.0459604,37.4585019 29.81737,37.45707 C30.6569045,37.4540674 31.4589003,37.1087943 32.03807,36.50102 C32.5908927,35.9287191 32.8937033,35.1602351 32.879876,34.3646535 C32.8660486,33.569072 32.5367162,32.8115747 31.96434,32.25883 L31.19768,31.51841 L42.51854,19.79541 L49.11034,26.16162 C49.4920174,26.5380303 50.0110339,26.7419668 50.54686,26.72607 C51.0815357,26.7185149 51.5910037,26.4975282 51.96186,26.1123 L53.374,24.6499 C54.1459975,23.8481278 54.1239421,22.572936 53.32468,21.79834 L52.58152,21.08057 L55.42869,18.13233 L56.17137,18.84962 C56.9729375,19.6221378 58.2485565,19.600075 59.02293,18.8003 L60.43504,17.3379 C61.2070375,16.5361278 61.1849821,15.260936 60.38572,14.48634 L53.793,8.12012 L56.544,5.271 C57.6104131,4.20053502 57.7566613,2.51982056 56.89117,1.28125 C56.3613127,0.562244058 55.5417914,0.112961717 54.6506593,0.0529452735 C53.7595273,-0.00707117011 52.887163,0.328265151 52.26568,0.96973 L26.834,27.30438 L26.06734,26.56396 C25.4964235,26.0091311 24.7270419,25.7061261 23.93111,25.72265 C23.1131882,25.7390595 22.3368958,26.0865051 21.77974,26.68554 C21.2269245,27.2577465 20.9241111,28.0261545 20.9379388,28.8216631 C20.9517664,29.6171718 21.2811021,30.3745916 21.85347,30.92724 L22.62024,31.66772 Z M23.29541,36.82177 C23.272159,36.8535225 23.2509367,36.8867119 23.23187,36.92114 C23.1907974,36.9728617 23.1551281,37.0286526 23.12542,37.08764 C23.0984313,37.145025 23.0772104,37.2049492 23.06207,37.26653 C23.0265651,37.3882342 23.0182522,37.5162562 23.03772,37.64153 C23.0446633,37.7036548 23.0576857,37.7649485 23.0766,37.82453 C23.0986309,37.8880428 23.1272291,37.9490833 23.16193,38.00666 C23.1760804,38.0425341 23.1924452,38.0774948 23.21093,38.11134 C26.6663417,42.7961644 25.9552953,49.3473195 21.5752298,53.1817003 C17.1951643,57.0160812 10.6075204,56.8543187 6.42093,52.80958 C2.23307179,48.7667581 1.84160431,42.1893315 5.52036521,37.6783134 C9.19912611,33.1672954 15.7208419,32.2276092 20.52347,35.51658 C20.5563624,35.5329846 20.5901946,35.5474331 20.62479,35.55985 C20.7373594,35.6236915 20.8623763,35.6624975 20.99131,35.67362 C21.02464,35.67698 21.05643,35.69236 21.08988,35.69236 C21.11905,35.69236 21.1464,35.67783 21.17545,35.67536 C21.2435241,35.6691637 21.3107516,35.6557825 21.37601,35.63544 C21.5023187,35.5998117 21.6190451,35.5363487 21.71762,35.44971 C21.7493165,35.4306898 21.779866,35.4098204 21.80911,35.38721 L24.059,33.05707 L25.54515,34.49225 L23.29541,36.82177 Z M53.70459,2.35889 C53.9147118,2.13846736 54.213031,2.02455499 54.51659,2.04883 C54.824052,2.06830636 55.10653,2.22478094 55.28612,2.4751 C55.5724189,2.92635724 55.4964928,3.5175688 55.10546,3.88184 L51.65966,7.44971 C51.4753141,7.64042895 51.3743134,7.89658772 51.3788916,8.16179741 C51.3834697,8.4270071 51.4932514,8.67952727 51.68407,8.86377 L58.99657,15.94824 L57.561,17.41113 L56.09912,15.999 C55.9092442,15.8131532 55.6523358,15.7119044 55.38672,15.71824 C55.121667,15.7231216 54.8693549,15.8328622 54.68506,16.02342 L50.44824,20.41063 C50.2638941,20.6013489 50.1628934,20.8575077 50.1674716,21.1227174 C50.1720497,21.3879271 50.2818314,21.6404473 50.47265,21.82469 L51.93554,23.26024 L50.5,24.72314 L43.18848,17.66214 C42.9939817,17.4835513 42.7401235,17.3835046 42.47608,17.38138 C42.211027,17.3862616 41.9587149,17.4960022 41.77442,17.68656 L29.75891,30.129 L28.27276,28.69382 L53.70459,2.35889 Z M22.938,28.78711 C22.9368963,28.4995287 23.0551924,28.224387 23.26466,28.02734 C23.4483161,27.8361533 23.7007547,27.726281 23.96583,27.72216 C24.231952,27.7115248 24.4902908,27.8132295 24.67774,28.00243 L30.5752,33.69774 C30.7663867,33.8813961 30.876259,34.1338347 30.88038,34.39891 C30.8810011,34.6862931 30.7629869,34.9611916 30.55421,35.15868 C30.1699235,35.5544703 29.5381328,35.5655954 29.14015,35.18358 L23.24315,29.48876 C23.0516683,29.3051137 22.9417608,29.0523967 22.938,28.78711 Z" id="Shape"></path>
        </g>
    </g>
</svg>