<?xml version="1.0" encoding="UTF-8" standalone="no"?>
<svg width="55px" height="55px" viewBox="0 0 55 55" version="1.1" xmlns="http://www.w3.org/2000/svg" xmlns:xlink="http://www.w3.org/1999/xlink">
    <!-- Generator: Sketch 40.1 (33804) - http://www.bohemiancoding.com/sketch -->
    <title>295 - Profile (interaction, communication, essential, outline)</title>
    <desc>Created with Sketch.</desc>
    <defs></defs>
    <g id="Page-1" stroke="none" stroke-width="1" fill="none" fill-rule="evenodd">
        <g id="Icons" transform="translate(-723.000000, -1319.000000)" stroke="#161819" stroke-width="2">
            <g id="Profile" transform="translate(724.000000, 1320.000000)">
                <path d="M53,26.5 C53,41.135 41.135,53 26.5,53 C11.865,53 0,41.135 0,26.5 C0,11.864 11.865,0 26.5,0 C41.135,0 53,11.864 53,26.5 L53,26.5 Z" id="Path"></path>
                <path d="M18.612,41.552 L10.705,45.865 C10.241,46.118 9.824,46.429 9.436,46.769 C14.047,50.655 19.998,53 26.5,53 C32.954,53 38.867,50.69 43.464,46.856 C43.04,46.498 42.58,46.176 42.07,45.921 L33.603,41.688 C32.509,41.141 31.818,40.023 31.818,38.799 L31.818,35.477 C32.056,35.207 32.328,34.858 32.619,34.448 C33.773,32.818 34.646,31.025 35.251,29.144 C36.336,28.809 37.136,27.806 37.136,26.614 L37.136,23.068 C37.136,22.288 36.79,21.591 36.25,21.103 L36.25,15.977 C36.25,15.977 37.303,8 26.5,8 C15.697,8 16.75,15.977 16.75,15.977 L16.75,21.103 C16.21,21.591 15.864,22.288 15.864,23.068 L15.864,26.614 C15.864,27.548 16.355,28.37 17.089,28.844 C17.975,32.702 20.295,35.477 20.295,35.477 L20.295,38.717 C20.295,39.899 19.65,40.986 18.612,41.552 L18.612,41.552 Z" id="Path"></path>
            </g>
        </g>
    </g>
</svg>