<?xml version="1.0" encoding="UTF-8"?>
<svg width="60px" height="58px" viewBox="0 0 60 58" version="1.1" xmlns="http://www.w3.org/2000/svg" xmlns:xlink="http://www.w3.org/1999/xlink">
    <!-- Generator: Sketch 43.2 (39069) - http://www.bohemiancoding.com/sketch -->
    <title>12 -QR Code- (shopping, shop, business)</title>
    <desc>Created with Sketch.</desc>
    <defs></defs>
    <g id="Page-1" stroke="none" stroke-width="1" fill="none" fill-rule="evenodd">
        <g id="Icons" transform="translate(-199.000000, -492.000000)" fill="#000000">
            <g id="12--QR-Code--(shopping,-shop,-business)" transform="translate(199.000000, 492.000000)">
                <path d="M2,4 L4,4 L4,2 L2,2 L2,4 Z M5,6 L1,6 C0.448,6 0,5.552 0,5 L0,1 C0,0.447 0.448,0 1,0 L5,0 C5.552,0 6,0.447 6,1 L6,5 C6,5.552 5.552,6 5,6 L5,6 Z" id="Fill-224"></path>
                <path d="M2,16 L4,16 L4,14 L2,14 L2,16 Z M5,18 L1,18 C0.448,18 0,17.552 0,17 L0,13 C0,12.447 0.448,12 1,12 L5,12 C5.552,12 6,12.447 6,13 L6,17 C6,17.552 5.552,18 5,18 L5,18 Z" id="Fill-225"></path>
                <path d="M9,10.9995 C8.448,10.9995 8,10.5515 8,9.9995 L8,0.9995 C8,0.4475 8.448,-0.0005 9,-0.0005 C9.552,-0.0005 10,0.4475 10,0.9995 L10,9.9995 C10,10.5515 9.552,10.9995 9,10.9995" id="Fill-226"></path>
                <path d="M17,17.9995 C16.448,17.9995 16,17.5515 16,16.9995 L16,7.9995 C16,7.4475 16.448,6.9995 17,6.9995 C17.552,6.9995 18,7.4475 18,7.9995 L18,16.9995 C18,17.5515 17.552,17.9995 17,17.9995" id="Fill-227"></path>
                <path d="M13,7.9995 C12.448,7.9995 12,7.5515 12,6.9995 L12,0.9995 C12,0.4475 12.448,-0.0005 13,-0.0005 C13.552,-0.0005 14,0.4475 14,0.9995 L14,6.9995 C14,7.5515 13.552,7.9995 13,7.9995" id="Fill-228"></path>
                <path d="M13,17.9995 C12.448,17.9995 12,17.5515 12,16.9995 L12,10.9995 C12,10.4475 12.448,9.9995 13,9.9995 C13.552,9.9995 14,10.4475 14,10.9995 L14,16.9995 C14,17.5515 13.552,17.9995 13,17.9995" id="Fill-229"></path>
                <path d="M17,4.9995 C16.448,4.9995 16,4.5515 16,3.9995 L16,0.9995 C16,0.4475 16.448,-0.0005 17,-0.0005 C17.552,-0.0005 18,0.4475 18,0.9995 L18,3.9995 C18,4.5515 17.552,4.9995 17,4.9995" id="Fill-230"></path>
                <path d="M26,57.9995 C25.448,57.9995 25,57.5515 25,56.9995 L25,47.9995 C25,47.4475 25.448,46.9995 26,46.9995 C26.552,46.9995 27,47.4475 27,47.9995 L27,56.9995 C27,57.5515 26.552,57.9995 26,57.9995" id="Fill-231"></path>
                <path d="M22,47.9995 C21.448,47.9995 21,47.5515 21,46.9995 L21,40.9995 C21,40.4475 21.448,39.9995 22,39.9995 C22.552,39.9995 23,40.4475 23,40.9995 L23,46.9995 C23,47.5515 22.552,47.9995 22,47.9995" id="Fill-232"></path>
                <path d="M22,57.9995 C21.448,57.9995 21,57.5515 21,56.9995 L21,50.9995 C21,50.4475 21.448,49.9995 22,49.9995 C22.552,49.9995 23,50.4475 23,50.9995 L23,56.9995 C23,57.5515 22.552,57.9995 22,57.9995" id="Fill-233"></path>
                <path d="M26,44.9995 C25.448,44.9995 25,44.5515 25,43.9995 L25,40.9995 C25,40.4475 25.448,39.9995 26,39.9995 C26.552,39.9995 27,40.4475 27,40.9995 L27,43.9995 C27,44.5515 26.552,44.9995 26,44.9995" id="Fill-234"></path>
                <path d="M9,17.9995 C8.448,17.9995 8,17.5515 8,16.9995 L8,13.9995 C8,13.4475 8.448,12.9995 9,12.9995 C9.552,12.9995 10,13.4475 10,13.9995 L10,16.9995 C10,17.5515 9.552,17.9995 9,17.9995" id="Fill-235"></path>
                <path d="M30,49.9995 C29.448,49.9995 29,49.5515 29,48.9995 L29,39.9995 C29,39.4475 29.448,38.9995 30,38.9995 C30.552,38.9995 31,39.4475 31,39.9995 L31,48.9995 C31,49.5515 30.552,49.9995 30,49.9995" id="Fill-236"></path>
                <path d="M30,56.9995 C29.448,56.9995 29,56.5515 29,55.9995 L29,52.9995 C29,52.4475 29.448,51.9995 30,51.9995 C30.552,51.9995 31,52.4475 31,52.9995 L31,55.9995 C31,56.5515 30.552,56.9995 30,56.9995" id="Fill-237"></path>
                <path d="M5,9.9995 L1,9.9995 C0.448,9.9995 0,9.5515 0,8.9995 C0,8.4475 0.448,7.9995 1,7.9995 L5,7.9995 C5.552,7.9995 6,8.4475 6,8.9995 C6,9.5515 5.552,9.9995 5,9.9995" id="Fill-238"></path>
                <path d="M23,24 L25,24 L25,22 L23,22 L23,24 Z M26,26 L22,26 C21.448,26 21,25.552 21,25 L21,21 C21,20.447 21.448,20 22,20 L26,20 C26.552,20 27,20.447 27,21 L27,25 C27,25.552 26.552,26 26,26 L26,26 Z" id="Fill-239"></path>
                <path d="M23,36 L25,36 L25,34 L23,34 L23,36 Z M26,38 L22,38 C21.448,38 21,37.552 21,37 L21,33 C21,32.447 21.448,32 22,32 L26,32 C26.552,32 27,32.447 27,33 L27,37 C27,37.552 26.552,38 26,38 L26,38 Z" id="Fill-240"></path>
                <path d="M30,30.9995 C29.448,30.9995 29,30.5515 29,29.9995 L29,20.9995 C29,20.4475 29.448,19.9995 30,19.9995 C30.552,19.9995 31,20.4475 31,20.9995 L31,29.9995 C31,30.5515 30.552,30.9995 30,30.9995" id="Fill-241"></path>
                <path d="M30,37.9995 C29.448,37.9995 29,37.5515 29,36.9995 L29,33.9995 C29,33.4475 29.448,32.9995 30,32.9995 C30.552,32.9995 31,33.4475 31,33.9995 L31,36.9995 C31,37.5515 30.552,37.9995 30,37.9995" id="Fill-242"></path>
                <path d="M26,29.9995 L22,29.9995 C21.448,29.9995 21,29.5515 21,28.9995 C21,28.4475 21.448,27.9995 22,27.9995 L26,27.9995 C26.552,27.9995 27,28.4475 27,28.9995 C27,29.5515 26.552,29.9995 26,29.9995" id="Fill-243"></path>
                <path d="M23,4 L25,4 L25,2 L23,2 L23,4 Z M26,6 L22,6 C21.448,6 21,5.552 21,5 L21,1 C21,0.447 21.448,0 22,0 L26,0 C26.552,0 27,0.447 27,1 L27,5 C27,5.552 26.552,6 26,6 L26,6 Z" id="Fill-244"></path>
                <path d="M23,16 L25,16 L25,14 L23,14 L23,16 Z M26,18 L22,18 C21.448,18 21,17.552 21,17 L21,13 C21,12.447 21.448,12 22,12 L26,12 C26.552,12 27,12.447 27,13 L27,17 C27,17.552 26.552,18 26,18 L26,18 Z" id="Fill-245"></path>
                <path d="M30,10.9995 C29.448,10.9995 29,10.5515 29,9.9995 L29,0.9995 C29,0.4475 29.448,-0.0005 30,-0.0005 C30.552,-0.0005 31,0.4475 31,0.9995 L31,9.9995 C31,10.5515 30.552,10.9995 30,10.9995" id="Fill-246"></path>
                <path d="M30,17.9995 C29.448,17.9995 29,17.5515 29,16.9995 L29,13.9995 C29,13.4475 29.448,12.9995 30,12.9995 C30.552,12.9995 31,13.4475 31,13.9995 L31,16.9995 C31,17.5515 30.552,17.9995 30,17.9995" id="Fill-247"></path>
                <path d="M26,9.9995 L22,9.9995 C21.448,9.9995 21,9.5515 21,8.9995 C21,8.4475 21.448,7.9995 22,7.9995 L26,7.9995 C26.552,7.9995 27,8.4475 27,8.9995 C27,9.5515 26.552,9.9995 26,9.9995" id="Fill-248"></path>
                <path d="M2,48 L4,48 L4,46 L2,46 L2,48 Z M5,50 L1,50 C0.448,50 0,49.552 0,49 L0,45 C0,44.447 0.448,44 1,44 L5,44 C5.552,44 6,44.447 6,45 L6,49 C6,49.552 5.552,50 5,50 L5,50 Z" id="Fill-249"></path>
                <path d="M15,48 L17,48 L17,46 L15,46 L15,48 Z M18,50 L14,50 C13.448,50 13,49.552 13,49 L13,45 C13,44.447 13.448,44 14,44 L18,44 C18.552,44 19,44.447 19,45 L19,49 C19,49.552 18.552,50 18,50 L18,50 Z" id="Fill-250"></path>
                <path d="M10,41.9995 L1,41.9995 C0.448,41.9995 0,41.5515 0,40.9995 C0,40.4475 0.448,39.9995 1,39.9995 L10,39.9995 C10.552,39.9995 11,40.4475 11,40.9995 C11,41.5515 10.552,41.9995 10,41.9995" id="Fill-251"></path>
                <path d="M18,33.9995 L9,33.9995 C8.448,33.9995 8,33.5515 8,32.9995 C8,32.4475 8.448,31.9995 9,31.9995 L18,31.9995 C18.552,31.9995 19,32.4475 19,32.9995 C19,33.5515 18.552,33.9995 18,33.9995" id="Fill-252"></path>
                <path d="M7,37.9995 L1,37.9995 C0.448,37.9995 0,37.5515 0,36.9995 C0,36.4475 0.448,35.9995 1,35.9995 L7,35.9995 C7.552,35.9995 8,36.4475 8,36.9995 C8,37.5515 7.552,37.9995 7,37.9995" id="Fill-253"></path>
                <path d="M18,37.9995 L12,37.9995 C11.448,37.9995 11,37.5515 11,36.9995 C11,36.4475 11.448,35.9995 12,35.9995 L18,35.9995 C18.552,35.9995 19,36.4475 19,36.9995 C19,37.5515 18.552,37.9995 18,37.9995" id="Fill-254"></path>
                <path d="M4,33.9995 L1,33.9995 C0.448,33.9995 0,33.5515 0,32.9995 C0,32.4475 0.448,31.9995 1,31.9995 L4,31.9995 C4.552,31.9995 5,32.4475 5,32.9995 C5,33.5515 4.552,33.9995 4,33.9995" id="Fill-255"></path>
                <path d="M18,53.9995 L9,53.9995 C8.448,53.9995 8,53.5515 8,52.9995 C8,52.4475 8.448,51.9995 9,51.9995 L18,51.9995 C18.552,51.9995 19,52.4475 19,52.9995 C19,53.5515 18.552,53.9995 18,53.9995" id="Fill-256"></path>
                <path d="M7,57.9995 L1,57.9995 C0.448,57.9995 0,57.5515 0,56.9995 C0,56.4475 0.448,55.9995 1,55.9995 L7,55.9995 C7.552,55.9995 8,56.4475 8,56.9995 C8,57.5515 7.552,57.9995 7,57.9995" id="Fill-257"></path>
                <path d="M18,57.9995 L12,57.9995 C11.448,57.9995 11,57.5515 11,56.9995 C11,56.4475 11.448,55.9995 12,55.9995 L18,55.9995 C18.552,55.9995 19,56.4475 19,56.9995 C19,57.5515 18.552,57.9995 18,57.9995" id="Fill-258"></path>
                <path d="M4,53.9995 L1,53.9995 C0.448,53.9995 0,53.5515 0,52.9995 C0,52.4475 0.448,51.9995 1,51.9995 L4,51.9995 C4.552,51.9995 5,52.4475 5,52.9995 C5,53.5515 4.552,53.9995 4,53.9995" id="Fill-259"></path>
                <path d="M17,41.9995 L14,41.9995 C13.448,41.9995 13,41.5515 13,40.9995 C13,40.4475 13.448,39.9995 14,39.9995 L17,39.9995 C17.552,39.9995 18,40.4475 18,40.9995 C18,41.5515 17.552,41.9995 17,41.9995" id="Fill-260"></path>
                <path d="M9,49.9995 C8.448,49.9995 8,49.5515 8,48.9995 L8,44.9995 C8,44.4475 8.448,43.9995 9,43.9995 C9.552,43.9995 10,44.4475 10,44.9995 L10,48.9995 C10,49.5515 9.552,49.9995 9,49.9995" id="Fill-261"></path>
                <path d="M2,28 L4,28 L4,26 L2,26 L2,28 Z M5,30 L1,30 C0.448,30 0,29.552 0,29 L0,25 C0,24.447 0.448,24 1,24 L5,24 C5.552,24 6,24.447 6,25 L6,29 C6,29.552 5.552,30 5,30 L5,30 Z" id="Fill-262"></path>
                <path d="M15,28 L17,28 L17,26 L15,26 L15,28 Z M18,30 L14,30 C13.448,30 13,29.552 13,29 L13,25 C13,24.447 13.448,24 14,24 L18,24 C18.552,24 19,24.447 19,25 L19,29 C19,29.552 18.552,30 18,30 L18,30 Z" id="Fill-263"></path>
                <path d="M10,21.9995 L1,21.9995 C0.448,21.9995 0,21.5515 0,20.9995 C0,20.4475 0.448,19.9995 1,19.9995 L10,19.9995 C10.552,19.9995 11,20.4475 11,20.9995 C11,21.5515 10.552,21.9995 10,21.9995" id="Fill-264"></path>
                <path d="M18,21.9995 L15,21.9995 C14.448,21.9995 14,21.5515 14,20.9995 C14,20.4475 14.448,19.9995 15,19.9995 L18,19.9995 C18.552,19.9995 19,20.4475 19,20.9995 C19,21.5515 18.552,21.9995 18,21.9995" id="Fill-265"></path>
                <path d="M9,29.9995 C8.448,29.9995 8,29.5515 8,28.9995 L8,24.9995 C8,24.4475 8.448,23.9995 9,23.9995 C9.552,23.9995 10,24.4475 10,24.9995 L10,28.9995 C10,29.5515 9.552,29.9995 9,29.9995" id="Fill-266"></path>
                <path d="M35,4 L37,4 L37,2 L35,2 L35,4 Z M38,6 L34,6 C33.448,6 33,5.552 33,5 L33,1 C33,0.447 33.448,0 34,0 L38,0 C38.552,0 39,0.447 39,1 L39,5 C39,5.552 38.552,6 38,6 L38,6 Z" id="Fill-267"></path>
                <path d="M35,16 L37,16 L37,14 L35,14 L35,16 Z M38,18 L34,18 C33.448,18 33,17.552 33,17 L33,13 C33,12.447 33.448,12 34,12 L38,12 C38.552,12 39,12.447 39,13 L39,17 C39,17.552 38.552,18 38,18 L38,18 Z" id="Fill-268"></path>
                <path d="M42,10.9995 C41.448,10.9995 41,10.5515 41,9.9995 L41,0.9995 C41,0.4475 41.448,-0.0005 42,-0.0005 C42.552,-0.0005 43,0.4475 43,0.9995 L43,9.9995 C43,10.5515 42.552,10.9995 42,10.9995" id="Fill-269"></path>
                <path d="M50,17.9995 C49.448,17.9995 49,17.5515 49,16.9995 L49,7.9995 C49,7.4475 49.448,6.9995 50,6.9995 C50.552,6.9995 51,7.4475 51,7.9995 L51,16.9995 C51,17.5515 50.552,17.9995 50,17.9995" id="Fill-270"></path>
                <path d="M46,7.9995 C45.448,7.9995 45,7.5515 45,6.9995 L45,0.9995 C45,0.4475 45.448,-0.0005 46,-0.0005 C46.552,-0.0005 47,0.4475 47,0.9995 L47,6.9995 C47,7.5515 46.552,7.9995 46,7.9995" id="Fill-271"></path>
                <path d="M46,17.9995 C45.448,17.9995 45,17.5515 45,16.9995 L45,10.9995 C45,10.4475 45.448,9.9995 46,9.9995 C46.552,9.9995 47,10.4475 47,10.9995 L47,16.9995 C47,17.5515 46.552,17.9995 46,17.9995" id="Fill-272"></path>
                <path d="M50,4.9995 C49.448,4.9995 49,4.5515 49,3.9995 L49,0.9995 C49,0.4475 49.448,-0.0005 50,-0.0005 C50.552,-0.0005 51,0.4475 51,0.9995 L51,3.9995 C51,4.5515 50.552,4.9995 50,4.9995" id="Fill-273"></path>
                <path d="M59,57.9995 C58.448,57.9995 58,57.5515 58,56.9995 L58,47.9995 C58,47.4475 58.448,46.9995 59,46.9995 C59.552,46.9995 60,47.4475 60,47.9995 L60,56.9995 C60,57.5515 59.552,57.9995 59,57.9995" id="Fill-274"></path>
                <path d="M55,47.9995 C54.448,47.9995 54,47.5515 54,46.9995 L54,40.9995 C54,40.4475 54.448,39.9995 55,39.9995 C55.552,39.9995 56,40.4475 56,40.9995 L56,46.9995 C56,47.5515 55.552,47.9995 55,47.9995" id="Fill-275"></path>
                <path d="M55,57.9995 C54.448,57.9995 54,57.5515 54,56.9995 L54,50.9995 C54,50.4475 54.448,49.9995 55,49.9995 C55.552,49.9995 56,50.4475 56,50.9995 L56,56.9995 C56,57.5515 55.552,57.9995 55,57.9995" id="Fill-276"></path>
                <path d="M59,44.9995 C58.448,44.9995 58,44.5515 58,43.9995 L58,40.9995 C58,40.4475 58.448,39.9995 59,39.9995 C59.552,39.9995 60,40.4475 60,40.9995 L60,43.9995 C60,44.5515 59.552,44.9995 59,44.9995" id="Fill-277"></path>
                <path d="M42,17.9995 C41.448,17.9995 41,17.5515 41,16.9995 L41,13.9995 C41,13.4475 41.448,12.9995 42,12.9995 C42.552,12.9995 43,13.4475 43,13.9995 L43,16.9995 C43,17.5515 42.552,17.9995 42,17.9995" id="Fill-278"></path>
                <path d="M38,9.9995 L34,9.9995 C33.448,9.9995 33,9.5515 33,8.9995 C33,8.4475 33.448,7.9995 34,7.9995 L38,7.9995 C38.552,7.9995 39,8.4475 39,8.9995 C39,9.5515 38.552,9.9995 38,9.9995" id="Fill-279"></path>
                <path d="M56,24 L58,24 L58,22 L56,22 L56,24 Z M59,26 L55,26 C54.448,26 54,25.552 54,25 L54,21 C54,20.447 54.448,20 55,20 L59,20 C59.552,20 60,20.447 60,21 L60,25 C60,25.552 59.552,26 59,26 L59,26 Z" id="Fill-280"></path>
                <path d="M56,36 L58,36 L58,34 L56,34 L56,36 Z M59,38 L55,38 C54.448,38 54,37.552 54,37 L54,33 C54,32.447 54.448,32 55,32 L59,32 C59.552,32 60,32.447 60,33 L60,37 C60,37.552 59.552,38 59,38 L59,38 Z" id="Fill-281"></path>
                <path d="M59,29.9995 L55,29.9995 C54.448,29.9995 54,29.5515 54,28.9995 C54,28.4475 54.448,27.9995 55,27.9995 L59,27.9995 C59.552,27.9995 60,28.4475 60,28.9995 C60,29.5515 59.552,29.9995 59,29.9995" id="Fill-282"></path>
                <path d="M56,4 L58,4 L58,2 L56,2 L56,4 Z M59,6 L55,6 C54.448,6 54,5.552 54,5 L54,1 C54,0.447 54.448,0 55,0 L59,0 C59.552,0 60,0.447 60,1 L60,5 C60,5.552 59.552,6 59,6 L59,6 Z" id="Fill-283"></path>
                <path d="M56,16 L58,16 L58,14 L56,14 L56,16 Z M59,18 L55,18 C54.448,18 54,17.552 54,17 L54,13 C54,12.447 54.448,12 55,12 L59,12 C59.552,12 60,12.447 60,13 L60,17 C60,17.552 59.552,18 59,18 L59,18 Z" id="Fill-284"></path>
                <path d="M59,9.9995 L55,9.9995 C54.448,9.9995 54,9.5515 54,8.9995 C54,8.4475 54.448,7.9995 55,7.9995 L59,7.9995 C59.552,7.9995 60,8.4475 60,8.9995 C60,9.5515 59.552,9.9995 59,9.9995" id="Fill-285"></path>
                <path d="M35,48 L37,48 L37,46 L35,46 L35,48 Z M38,50 L34,50 C33.448,50 33,49.552 33,49 L33,45 C33,44.447 33.448,44 34,44 L38,44 C38.552,44 39,44.447 39,45 L39,49 C39,49.552 38.552,50 38,50 L38,50 Z" id="Fill-286"></path>
                <path d="M48,48 L50,48 L50,46 L48,46 L48,48 Z M51,50 L47,50 C46.448,50 46,49.552 46,49 L46,45 C46,44.447 46.448,44 47,44 L51,44 C51.552,44 52,44.447 52,45 L52,49 C52,49.552 51.552,50 51,50 L51,50 Z" id="Fill-287"></path>
                <path d="M43,41.9995 L34,41.9995 C33.448,41.9995 33,41.5515 33,40.9995 C33,40.4475 33.448,39.9995 34,39.9995 L43,39.9995 C43.552,39.9995 44,40.4475 44,40.9995 C44,41.5515 43.552,41.9995 43,41.9995" id="Fill-288"></path>
                <path d="M51,33.9995 L42,33.9995 C41.448,33.9995 41,33.5515 41,32.9995 C41,32.4475 41.448,31.9995 42,31.9995 L51,31.9995 C51.552,31.9995 52,32.4475 52,32.9995 C52,33.5515 51.552,33.9995 51,33.9995" id="Fill-289"></path>
                <path d="M40,37.9995 L34,37.9995 C33.448,37.9995 33,37.5515 33,36.9995 C33,36.4475 33.448,35.9995 34,35.9995 L40,35.9995 C40.552,35.9995 41,36.4475 41,36.9995 C41,37.5515 40.552,37.9995 40,37.9995" id="Fill-290"></path>
                <path d="M51,37.9995 L45,37.9995 C44.448,37.9995 44,37.5515 44,36.9995 C44,36.4475 44.448,35.9995 45,35.9995 L51,35.9995 C51.552,35.9995 52,36.4475 52,36.9995 C52,37.5515 51.552,37.9995 51,37.9995" id="Fill-291"></path>
                <path d="M37,33.9995 L34,33.9995 C33.448,33.9995 33,33.5515 33,32.9995 C33,32.4475 33.448,31.9995 34,31.9995 L37,31.9995 C37.552,31.9995 38,32.4475 38,32.9995 C38,33.5515 37.552,33.9995 37,33.9995" id="Fill-292"></path>
                <path d="M51,53.9995 L42,53.9995 C41.448,53.9995 41,53.5515 41,52.9995 C41,52.4475 41.448,51.9995 42,51.9995 L51,51.9995 C51.552,51.9995 52,52.4475 52,52.9995 C52,53.5515 51.552,53.9995 51,53.9995" id="Fill-293"></path>
                <path d="M40,57.9995 L34,57.9995 C33.448,57.9995 33,57.5515 33,56.9995 C33,56.4475 33.448,55.9995 34,55.9995 L40,55.9995 C40.552,55.9995 41,56.4475 41,56.9995 C41,57.5515 40.552,57.9995 40,57.9995" id="Fill-294"></path>
                <path d="M51,57.9995 L45,57.9995 C44.448,57.9995 44,57.5515 44,56.9995 C44,56.4475 44.448,55.9995 45,55.9995 L51,55.9995 C51.552,55.9995 52,56.4475 52,56.9995 C52,57.5515 51.552,57.9995 51,57.9995" id="Fill-295"></path>
                <path d="M37,53.9995 L34,53.9995 C33.448,53.9995 33,53.5515 33,52.9995 C33,52.4475 33.448,51.9995 34,51.9995 L37,51.9995 C37.552,51.9995 38,52.4475 38,52.9995 C38,53.5515 37.552,53.9995 37,53.9995" id="Fill-296"></path>
                <path d="M50,41.9995 L47,41.9995 C46.448,41.9995 46,41.5515 46,40.9995 C46,40.4475 46.448,39.9995 47,39.9995 L50,39.9995 C50.552,39.9995 51,40.4475 51,40.9995 C51,41.5515 50.552,41.9995 50,41.9995" id="Fill-297"></path>
                <path d="M42,49.9995 C41.448,49.9995 41,49.5515 41,48.9995 L41,44.9995 C41,44.4475 41.448,43.9995 42,43.9995 C42.552,43.9995 43,44.4475 43,44.9995 L43,48.9995 C43,49.5515 42.552,49.9995 42,49.9995" id="Fill-298"></path>
                <path d="M35,28 L37,28 L37,26 L35,26 L35,28 Z M38,30 L34,30 C33.448,30 33,29.552 33,29 L33,25 C33,24.447 33.448,24 34,24 L38,24 C38.552,24 39,24.447 39,25 L39,29 C39,29.552 38.552,30 38,30 L38,30 Z" id="Fill-299"></path>
                <path d="M48,28 L50,28 L50,26 L48,26 L48,28 Z M51,30 L47,30 C46.448,30 46,29.552 46,29 L46,25 C46,24.447 46.448,24 47,24 L51,24 C51.552,24 52,24.447 52,25 L52,29 C52,29.552 51.552,30 51,30 L51,30 Z" id="Fill-300"></path>
                <path d="M43,21.9995 L34,21.9995 C33.448,21.9995 33,21.5515 33,20.9995 C33,20.4475 33.448,19.9995 34,19.9995 L43,19.9995 C43.552,19.9995 44,20.4475 44,20.9995 C44,21.5515 43.552,21.9995 43,21.9995" id="Fill-301"></path>
                <path d="M51,21.9995 L48,21.9995 C47.448,21.9995 47,21.5515 47,20.9995 C47,20.4475 47.448,19.9995 48,19.9995 L51,19.9995 C51.552,19.9995 52,20.4475 52,20.9995 C52,21.5515 51.552,21.9995 51,21.9995" id="Fill-302"></path>
                <path d="M42,29.9995 C41.448,29.9995 41,29.5515 41,28.9995 L41,24.9995 C41,24.4475 41.448,23.9995 42,23.9995 C42.552,23.9995 43,24.4475 43,24.9995 L43,28.9995 C43,29.5515 42.552,29.9995 42,29.9995" id="Fill-303"></path>
            </g>
        </g>
    </g>
</svg>