<svg xmlns="http://www.w3.org/2000/svg" height="579pt" version="1.1" viewBox="0 0 579.39845 579" width="579pt">
<g id="surface1">
<path d="M 59.171875 441.113281 L 335.3125 164.96875 L 414.210938 243.871094 L 138.070312 520.011719 Z M 59.171875 441.113281 " style=" stroke:none;fill-rule:nonzero;fill:rgb(81.568627%,84.313725%,87.45098%);fill-opacity:1;" />
<path d="M 88.761719 520.015625 L 59.171875 490.429688 L 128.210938 421.394531 L 157.796875 421.394531 L 157.796875 450.980469 Z M 88.761719 520.015625 " style=" stroke:none;fill-rule:nonzero;fill:rgb(50.196078%,54.509804%,58.823529%);fill-opacity:1;" />
<path d="M 433.945312 184.695312 L 394.496094 145.246094 L 335.320312 164.972656 L 414.21875 243.871094 Z M 433.945312 184.695312 " style=" stroke:none;fill-rule:nonzero;fill:rgb(50.196078%,54.509804%,58.823529%);fill-opacity:1;" />
<path d="M 414.21875 164.972656 L 394.496094 224.144531 L 414.21875 243.871094 L 433.945312 184.695312 Z M 414.21875 164.972656 " style=" stroke:none;fill-rule:nonzero;fill:rgb(34.117647%,39.607843%,45.098039%);fill-opacity:1;" />
<path d="M 483.257812 56.484375 L 394.496094 145.246094 L 433.945312 184.695312 L 522.707031 95.933594 L 532.570312 46.621094 Z M 483.257812 56.484375 " style=" stroke:none;fill-rule:nonzero;fill:rgb(81.568627%,84.313725%,87.45098%);fill-opacity:1;" />
<path d="M 502.984375 62.265625 L 565.046875 0.199219 L 578.996094 14.144531 L 516.929688 76.210938 Z M 502.984375 62.265625 " style=" stroke:none;fill-rule:nonzero;fill:rgb(81.568627%,84.313725%,87.45098%);fill-opacity:1;" />
<path d="M 59.171875 441.117188 L 0 381.945312 L 19.726562 362.21875 L 108.488281 391.804688 Z M 59.171875 441.117188 " style=" stroke:none;fill-rule:nonzero;fill:rgb(50.196078%,54.509804%,58.823529%);fill-opacity:1;" />
<path d="M 138.074219 520.015625 L 197.246094 579.191406 L 216.972656 559.464844 L 187.386719 470.707031 Z M 138.074219 520.015625 " style=" stroke:none;fill-rule:nonzero;fill:rgb(50.196078%,54.509804%,58.823529%);fill-opacity:1;" />
<path d="M 98.625 480.566406 L 69.035156 480.566406 L 29.585938 520.015625 L 59.171875 549.605469 L 98.625 510.15625 Z M 98.625 480.566406 " style=" stroke:none;fill-rule:nonzero;fill:rgb(76.470588%,78.823529%,81.960784%);fill-opacity:1;" />
<path d="M 69.035156 450.980469 L 39.449219 450.980469 L 0 490.429688 L 29.585938 520.015625 L 69.035156 480.566406 Z M 69.035156 450.980469 " style=" stroke:none;fill-rule:nonzero;fill:rgb(50.196078%,54.509804%,58.823529%);fill-opacity:1;" />
<path d="M 424.074219 115.660156 L 453.664062 86.074219 L 493.113281 125.523438 L 463.527344 155.113281 Z M 424.074219 115.660156 " style=" stroke:none;fill-rule:nonzero;fill:rgb(50.196078%,54.509804%,58.823529%);fill-opacity:1;" />
<path d="M 17.679688 472.734375 L 31.628906 458.785156 L 61.21875 488.375 L 47.269531 502.320312 Z M 17.679688 472.734375 " style=" stroke:none;fill-rule:nonzero;fill:rgb(65.882353%,69.803922%,74.901961%);fill-opacity:1;" />
<path d="M 128.210938 510.15625 L 98.625 510.15625 L 59.171875 549.605469 L 88.761719 579.191406 L 128.210938 539.742188 Z M 128.210938 510.15625 " style=" stroke:none;fill-rule:nonzero;fill:rgb(50.196078%,54.509804%,58.823529%);fill-opacity:1;" />
<path d="M 76.855469 531.910156 L 90.800781 517.960938 L 120.390625 547.550781 L 106.445312 561.5 Z M 76.855469 531.910156 " style=" stroke:none;fill-rule:nonzero;fill:rgb(65.882353%,69.803922%,74.901961%);fill-opacity:1;" />
<path d="M 47.257812 502.324219 L 61.207031 488.378906 L 90.796875 517.96875 L 76.847656 531.914062 Z M 47.257812 502.324219 " style=" stroke:none;fill-rule:nonzero;fill:rgb(71.764706%,74.117647%,76.862745%);fill-opacity:1;" />
<path d="M 187.386719 470.707031 L 138.074219 520.015625 L 152.867188 534.8125 L 194.78125 492.894531 Z M 187.386719 470.707031 " style=" stroke:none;fill-rule:nonzero;fill:rgb(34.117647%,39.607843%,45.098039%);fill-opacity:1;" />
<path d="M 453.667969 145.25 L 483.257812 115.664062 L 493.121094 125.523438 L 463.53125 155.113281 Z M 453.667969 145.25 " style=" stroke:none;fill-rule:nonzero;fill:rgb(34.117647%,39.607843%,45.098039%);fill-opacity:1;" />
<path d="M 519.816406 79.101562 L 494.875 54.15625 L 483.257812 56.484375 L 476.285156 63.457031 L 505.871094 93.046875 Z M 519.816406 79.101562 " style=" stroke:none;fill-rule:nonzero;fill:rgb(50.196078%,54.509804%,58.823529%);fill-opacity:1;" />
<path d="M 519.816406 79.101562 L 505.871094 93.046875 L 515.734375 102.90625 L 522.707031 95.933594 L 525.035156 84.316406 Z M 519.816406 79.101562 " style=" stroke:none;fill-rule:nonzero;fill:rgb(34.117647%,39.607843%,45.098039%);fill-opacity:1;" />
<path d="M 113.410156 495.355469 L 389.554688 219.214844 L 414.210938 243.871094 L 138.070312 520.011719 Z M 113.410156 495.355469 " style=" stroke:none;fill-rule:nonzero;fill:rgb(76.470588%,78.823529%,81.960784%);fill-opacity:1;" />
<path d="M 170.539062 329.738281 L 184.488281 315.792969 L 263.386719 394.691406 L 249.441406 408.640625 Z M 170.539062 329.738281 " style=" stroke:none;fill-rule:nonzero;fill:rgb(50.196078%,54.509804%,58.823529%);fill-opacity:1;" />
<path d="M 224.78125 383.984375 L 238.726562 370.035156 L 263.386719 394.695312 L 249.4375 408.640625 Z M 224.78125 383.984375 " style=" stroke:none;fill-rule:nonzero;fill:rgb(34.117647%,39.607843%,45.098039%);fill-opacity:1;" />
</g>
</svg>