<?xml version="1.0" encoding="UTF-8"?>
<svg width="218px" height="41px" viewBox="0 0 218 41" version="1.1" xmlns="http://www.w3.org/2000/svg" xmlns:xlink="http://www.w3.org/1999/xlink">
    <!-- Generator: Sketch 50.2 (55047) - http://www.bohemiancoding.com/sketch -->
    <title>Group 3</title>
    <desc>Created with Sketch.</desc>
    <defs></defs>
    <g id="Page-1" stroke="none" stroke-width="1" fill="none" fill-rule="evenodd">
        <g id="Mobile-menu-Copy-3" transform="translate(-25.000000, -18.000000)" fill="#FFFFFF">
            <g id="Group-3" transform="translate(25.000000, 18.000000)">
                <g id="Logo">
                    <path d="M18.4383,-2.96028881e-05 L23.9757,-2.96028881e-05 L45.39375,36.6061617 L47.9514,40.9773242 L31.3395,40.9773242 L23.9757,28.3916563 L16.6119,40.9773242 L11.07465,40.9773242 L23.9757,18.927761 L34.3191,36.6061617 L39.8565,36.6061617 L18.4383,-2.96028881e-05 Z M7.10542736e-14,40.9773538 L18.43845,9.46389531 L21.207,14.195769 L5.53725,40.9773538 L7.10542736e-14,40.9773538 Z" id="Combined-Shape"></path>
                </g>
                <g id="Logotype" transform="translate(66.000000, 13.000000)">
                    <path d="M30.8525289,16.8623248 L27.9992396,16.8623248 L27.9992396,1.44034672 C27.9992396,0.660083942 28.6380656,0.0276094891 29.4258843,0.0276094891 L43.430435,0.0276094891 C46.1837276,0.0276094891 48.4236287,2.24567518 48.4236287,4.97212774 L48.4236287,6.32579927 C48.4236287,9.05225182 46.1837276,11.2703175 43.430435,11.2703175 L34.7298447,11.2703175 L34.7298447,8.44496715 L43.430435,8.44496715 C44.6104712,8.44496715 45.5703393,7.49433212 45.5703393,6.32579927 L45.5703393,4.97212774 C45.5703393,3.80359489 44.6104712,2.85308394 43.430435,2.85308394 L30.8525289,2.85308394 L30.8525289,16.8623248 Z M101.321057,16.8623248 L91.2398107,16.8623248 C88.4865181,16.8623248 86.246617,14.6442591 86.246617,11.9178066 L86.246617,0.0276094891 L89.0999063,0.0276094891 L89.0999063,11.9178066 C89.0999063,13.0863394 90.0597744,14.0368504 91.2398107,14.0368504 L101.321057,14.0368504 L101.321057,16.8623248 Z M124.093427,16.8623248 L114.012055,16.8623248 C111.258762,16.8623248 109.018861,14.6442591 109.018861,11.9178066 L109.018861,0.0276094891 L111.87215,0.0276094891 L111.87215,11.9178066 C111.87215,13.0863394 112.832018,14.0368504 114.012055,14.0368504 L124.093427,14.0368504 L124.093427,16.8623248 Z M77.1344363,6.38479051 L74.2811469,6.38479051 L74.2811469,4.97205328 C74.2811469,3.80352044 73.3212788,2.85300949 72.1412425,2.85300949 L61.7031156,2.85300949 C60.5232046,2.85300949 59.5632112,3.80352044 59.5632112,4.97205328 L59.5632112,6.38479051 L56.7100472,6.38479051 L56.7100472,4.97205328 C56.7100472,2.24560073 58.9499482,0.0276591241 61.7031156,0.0276591241 L72.1412425,0.0276591241 C74.8945352,0.0276591241 77.1344363,2.24560073 77.1344363,4.97205328 L77.1344363,6.38479051 Z M72.1412801,16.8623248 L61.7031532,16.8623248 C58.9498605,16.8623248 56.7099594,14.6442591 56.7099594,11.9178066 L56.7099594,10.5051934 L59.5632488,10.5051934 L59.5632488,11.9178066 C59.5632488,13.0863394 60.5232422,14.0368504 61.7031532,14.0368504 L72.1412801,14.0368504 C73.3213164,14.0368504 74.2811845,13.0863394 74.2811845,11.9178066 L74.2811845,10.5051934 L77.1344739,10.5051934 L77.1344739,11.9178066 C77.1344739,14.6442591 74.8945728,16.8623248 72.1412801,16.8623248 Z M151.959412,6.38479051 L149.106123,6.38479051 L149.106123,4.97205328 C149.106123,3.80352044 148.146255,2.85300949 146.966219,2.85300949 L136.528092,2.85300949 C135.348181,2.85300949 134.388187,3.80352044 134.388187,4.97205328 L134.388187,6.38479051 L131.535023,6.38479051 L131.535023,4.97205328 C131.535023,2.24560073 133.774924,0.0276591241 136.528092,0.0276591241 L146.966219,0.0276591241 C149.719511,0.0276591241 151.959412,2.24560073 151.959412,4.97205328 L151.959412,6.38479051 Z M146.966269,16.8623248 L136.528142,16.8623248 C133.774849,16.8623248 131.534948,14.6442591 131.534948,11.9178066 L131.534948,10.5051934 L134.388237,10.5051934 L134.388237,11.9178066 C134.388237,13.0863394 135.348106,14.0368504 136.528142,14.0368504 L146.966269,14.0368504 C148.146305,14.0368504 149.106173,13.0863394 149.106173,11.9178066 L149.106173,10.5051934 L151.959462,10.5051934 L151.959462,11.9178066 C151.959462,14.6442591 149.719561,16.8623248 146.966269,16.8623248 Z M9.86557692,-2.48175182e-05 L19.7128712,16.8899095 L16.4183683,16.8899095 L9.85642935,5.63516496 L3.29449035,16.8899095 L-1.25309151e-05,16.8899095 L8.20911525,2.80969051 L6.57094872,-2.48175182e-05 L9.84728178,-2.48175182e-05 L9.86557692,-2.48175182e-05 Z" id="Combined-Shape"></path>
                </g>
            </g>
        </g>
    </g>
</svg>